<mxfile host="app.diagrams.net" modified="2023-07-21T12:00:05.131Z" agent="Mozilla/5.0 (Windows NT 10.0; Win64; x64) AppleWebKit/537.36 (KHTML, like Gecko) Chrome/114.0.0.0 Safari/537.36" etag="RD5Q9r8c36V9qUUTqclQ" version="21.5.2" type="device">
  <diagram name="Page-1" id="k8aoMRYrhJrSw1PNEL1C">
    <mxGraphModel dx="989" dy="543" grid="1" gridSize="10" guides="1" tooltips="1" connect="1" arrows="1" fold="1" page="1" pageScale="1" pageWidth="850" pageHeight="1100" math="0" shadow="0">
      <root>
        <mxCell id="0" />
        <mxCell id="1" parent="0" />
        <mxCell id="rX8S3RlI1AfzJ1505Pl_-4" value="" style="group;fillColor=default;" vertex="1" connectable="0" parent="1">
          <mxGeometry x="380" y="146" width="60" height="50" as="geometry" />
        </mxCell>
        <mxCell id="rX8S3RlI1AfzJ1505Pl_-1" value="" style="shape=actor;whiteSpace=wrap;html=1;fillColor=#CCCCCC;fillStyle=solid;" vertex="1" parent="rX8S3RlI1AfzJ1505Pl_-4">
          <mxGeometry width="30" height="40" as="geometry" />
        </mxCell>
        <mxCell id="rX8S3RlI1AfzJ1505Pl_-2" value="" style="shape=actor;whiteSpace=wrap;html=1;fillColor=#CCCCCC;fillStyle=solid;" vertex="1" parent="rX8S3RlI1AfzJ1505Pl_-4">
          <mxGeometry x="30" width="30" height="40" as="geometry" />
        </mxCell>
        <mxCell id="rX8S3RlI1AfzJ1505Pl_-3" value="" style="shape=actor;whiteSpace=wrap;html=1;fillColor=#CCCCCC;fillStyle=solid;" vertex="1" parent="rX8S3RlI1AfzJ1505Pl_-4">
          <mxGeometry x="20" y="10" width="30" height="40" as="geometry" />
        </mxCell>
        <mxCell id="rX8S3RlI1AfzJ1505Pl_-5" value="" style="shape=actor;whiteSpace=wrap;html=1;fillColor=#99CCFF;" vertex="1" parent="1">
          <mxGeometry x="70" y="300" width="40" height="50" as="geometry" />
        </mxCell>
        <mxCell id="rX8S3RlI1AfzJ1505Pl_-17" style="edgeStyle=orthogonalEdgeStyle;rounded=0;orthogonalLoop=1;jettySize=auto;html=1;entryX=0;entryY=0.5;entryDx=0;entryDy=0;startArrow=classic;startFill=1;" edge="1" parent="1" source="rX8S3RlI1AfzJ1505Pl_-6" target="rX8S3RlI1AfzJ1505Pl_-13">
          <mxGeometry relative="1" as="geometry" />
        </mxCell>
        <mxCell id="rX8S3RlI1AfzJ1505Pl_-18" style="edgeStyle=orthogonalEdgeStyle;rounded=0;orthogonalLoop=1;jettySize=auto;html=1;" edge="1" parent="1" source="rX8S3RlI1AfzJ1505Pl_-6" target="rX8S3RlI1AfzJ1505Pl_-12">
          <mxGeometry relative="1" as="geometry" />
        </mxCell>
        <mxCell id="rX8S3RlI1AfzJ1505Pl_-6" value="Your notebook&lt;br&gt;server" style="rounded=0;whiteSpace=wrap;html=1;fillColor=#fff2cc;strokeColor=#d6b656;" vertex="1" parent="1">
          <mxGeometry x="160" y="340" width="120" height="60" as="geometry" />
        </mxCell>
        <mxCell id="rX8S3RlI1AfzJ1505Pl_-8" value="" style="strokeWidth=2;html=1;shape=mxgraph.flowchart.database;whiteSpace=wrap;" vertex="1" parent="1">
          <mxGeometry x="190" y="155" width="60" height="60" as="geometry" />
        </mxCell>
        <mxCell id="rX8S3RlI1AfzJ1505Pl_-23" style="edgeStyle=orthogonalEdgeStyle;rounded=0;orthogonalLoop=1;jettySize=auto;html=1;entryX=0.5;entryY=0;entryDx=0;entryDy=0;endArrow=classic;endFill=1;startArrow=classic;startFill=1;" edge="1" parent="1" source="rX8S3RlI1AfzJ1505Pl_-10" target="rX8S3RlI1AfzJ1505Pl_-6">
          <mxGeometry relative="1" as="geometry" />
        </mxCell>
        <mxCell id="rX8S3RlI1AfzJ1505Pl_-26" value="S3 cmd or&lt;br&gt;Nextflow" style="edgeLabel;html=1;align=center;verticalAlign=middle;resizable=0;points=[];" vertex="1" connectable="0" parent="rX8S3RlI1AfzJ1505Pl_-23">
          <mxGeometry x="-0.0451" y="1" relative="1" as="geometry">
            <mxPoint x="29" y="8" as="offset" />
          </mxGeometry>
        </mxCell>
        <mxCell id="rX8S3RlI1AfzJ1505Pl_-10" value="S3 Buckets" style="text;html=1;strokeColor=none;fillColor=none;align=center;verticalAlign=middle;whiteSpace=wrap;rounded=0;" vertex="1" parent="1">
          <mxGeometry x="180" y="215" width="80" height="30" as="geometry" />
        </mxCell>
        <mxCell id="rX8S3RlI1AfzJ1505Pl_-12" value="shared-team&lt;br&gt;folder" style="rounded=0;whiteSpace=wrap;html=1;fillColor=#fff2cc;strokeColor=#d6b656;" vertex="1" parent="1">
          <mxGeometry x="350" y="340" width="120" height="60" as="geometry" />
        </mxCell>
        <mxCell id="rX8S3RlI1AfzJ1505Pl_-13" value="shared-public&lt;br&gt;folder" style="rounded=0;whiteSpace=wrap;html=1;fillColor=#fff2cc;strokeColor=#d6b656;" vertex="1" parent="1">
          <mxGeometry x="350" y="450" width="120" height="60" as="geometry" />
        </mxCell>
        <mxCell id="rX8S3RlI1AfzJ1505Pl_-15" value="Size: 20GB" style="text;html=1;strokeColor=none;fillColor=none;align=center;verticalAlign=middle;whiteSpace=wrap;rounded=0;" vertex="1" parent="1">
          <mxGeometry x="180" y="400" width="90" height="30" as="geometry" />
        </mxCell>
        <mxCell id="rX8S3RlI1AfzJ1505Pl_-16" value="Size: 1TB" style="text;html=1;strokeColor=none;fillColor=none;align=center;verticalAlign=middle;whiteSpace=wrap;rounded=0;" vertex="1" parent="1">
          <mxGeometry x="420" y="400" width="60" height="30" as="geometry" />
        </mxCell>
        <mxCell id="rX8S3RlI1AfzJ1505Pl_-22" style="edgeStyle=orthogonalEdgeStyle;rounded=0;orthogonalLoop=1;jettySize=auto;html=1;" edge="1" parent="1" source="rX8S3RlI1AfzJ1505Pl_-21" target="rX8S3RlI1AfzJ1505Pl_-12">
          <mxGeometry relative="1" as="geometry" />
        </mxCell>
        <mxCell id="rX8S3RlI1AfzJ1505Pl_-21" value="Other team members" style="text;html=1;strokeColor=none;fillColor=none;align=center;verticalAlign=middle;whiteSpace=wrap;rounded=0;" vertex="1" parent="1">
          <mxGeometry x="370" y="216" width="80" height="30" as="geometry" />
        </mxCell>
        <mxCell id="rX8S3RlI1AfzJ1505Pl_-28" style="edgeStyle=orthogonalEdgeStyle;rounded=0;orthogonalLoop=1;jettySize=auto;html=1;entryX=0;entryY=0.5;entryDx=0;entryDy=0;startArrow=classic;startFill=1;" edge="1" parent="1" source="rX8S3RlI1AfzJ1505Pl_-27" target="rX8S3RlI1AfzJ1505Pl_-6">
          <mxGeometry relative="1" as="geometry" />
        </mxCell>
        <mxCell id="rX8S3RlI1AfzJ1505Pl_-27" value="You" style="text;html=1;strokeColor=none;fillColor=none;align=center;verticalAlign=middle;whiteSpace=wrap;rounded=0;" vertex="1" parent="1">
          <mxGeometry x="60" y="355" width="60" height="30" as="geometry" />
        </mxCell>
        <mxCell id="rX8S3RlI1AfzJ1505Pl_-31" value="" style="edgeStyle=orthogonalEdgeStyle;rounded=0;orthogonalLoop=1;jettySize=auto;html=1;entryX=0.5;entryY=0;entryDx=0;entryDy=0;entryPerimeter=0;dashed=1;" edge="1" parent="1" source="rX8S3RlI1AfzJ1505Pl_-29" target="rX8S3RlI1AfzJ1505Pl_-8">
          <mxGeometry relative="1" as="geometry" />
        </mxCell>
        <mxCell id="rX8S3RlI1AfzJ1505Pl_-29" value="External websites or databases" style="rounded=0;whiteSpace=wrap;html=1;dashed=1;" vertex="1" parent="1">
          <mxGeometry x="260" y="60" width="120" height="60" as="geometry" />
        </mxCell>
        <mxCell id="rX8S3RlI1AfzJ1505Pl_-33" style="edgeStyle=orthogonalEdgeStyle;rounded=0;orthogonalLoop=1;jettySize=auto;html=1;entryX=0.5;entryY=0;entryDx=0;entryDy=0;entryPerimeter=0;dashed=1;" edge="1" parent="1" source="rX8S3RlI1AfzJ1505Pl_-32" target="rX8S3RlI1AfzJ1505Pl_-8">
          <mxGeometry relative="1" as="geometry" />
        </mxCell>
        <mxCell id="rX8S3RlI1AfzJ1505Pl_-35" style="edgeStyle=orthogonalEdgeStyle;rounded=0;orthogonalLoop=1;jettySize=auto;html=1;entryX=0.5;entryY=0;entryDx=0;entryDy=0;dashed=1;" edge="1" parent="1" source="rX8S3RlI1AfzJ1505Pl_-32" target="rX8S3RlI1AfzJ1505Pl_-6">
          <mxGeometry relative="1" as="geometry">
            <Array as="points">
              <mxPoint x="110" y="270" />
              <mxPoint x="220" y="270" />
            </Array>
          </mxGeometry>
        </mxCell>
        <mxCell id="rX8S3RlI1AfzJ1505Pl_-32" value="Your local &lt;br&gt;computer" style="rounded=0;whiteSpace=wrap;html=1;dashed=1;" vertex="1" parent="1">
          <mxGeometry x="50" y="60" width="120" height="60" as="geometry" />
        </mxCell>
      </root>
    </mxGraphModel>
  </diagram>
</mxfile>
